<svg xmlns="http://www.w3.org/2000/svg" viewBox="0 0 64 64">
  <rect width="64" height="64" rx="14" fill="#282a36"/>
  <!-- Mooring ring threaded by the gutter line -->
  <circle cx="32" cy="9" r="3.4" fill="none" stroke="#6272a4" stroke-width="2"/>
  <rect x="31" y="13" width="2" height="41" rx="1" fill="#44475a"/>
  <!-- Left panel (old) -->
  <g>
    <rect x="10" y="14" width="18" height="4" rx="2" fill="#6272a4"/>
    <rect x="10" y="22" width="18" height="4" rx="2" fill="#ff5555" opacity="0.9"/>
    <rect x="10" y="30" width="6" height="4" rx="2" fill="#44475a"/>
    <rect x="10" y="38" width="18" height="4" rx="2" fill="#6272a4"/>
    <rect x="10" y="46" width="11" height="4" rx="2" fill="#6272a4"/>
  </g>
  <!-- Right panel (new) -->
  <g>
    <rect x="36" y="14" width="18" height="4" rx="2" fill="#6272a4"/>
    <rect x="36" y="22" width="18" height="4" rx="2" fill="#50fa7b"/>
    <rect x="36" y="30" width="14" height="4" rx="2" fill="#50fa7b"/>
    <rect x="36" y="38" width="18" height="4" rx="2" fill="#6272a4"/>
    <rect x="36" y="46" width="11" height="4" rx="2" fill="#6272a4"/>
  </g>
</svg>
